<?xml version="1.0" encoding="utf-8"?>
<svg xmlns="http://www.w3.org/2000/svg" viewBox="54.9664 129.5979 22 22" width="22px" height="22px"><g id="object-7" style="" transform="matrix(0.5846869349479675, 0, 0, 0.5847020149230957, 25.93494987487793, 56.99372100830079)"><path d="M 81.853 129.602 C 79.012 126.762 75.978 128.6 74.08 130.499 L 56.143 148.436 C 54.245 150.334 52.257 153.219 55.247 156.208 C 58.236 159.198 61.121 157.21 63.019 155.311 L 80.956 137.375 C 82.854 135.476 84.693 132.442 81.853 129.602 Z" style="opacity: 0.93; paint-order: fill; fill: rgb(255, 255, 255); stroke: rgb(255, 255, 255); fill-opacity: 0;" id="object-0"/><path d="M 64.716 128.867 L 68.514 132.665 L 72.38 128.799 C 72.643 128.536 72.909 128.292 73.177 128.062 C 72.772 126.019 71.607 124.173 68.513 124.173 C 65.412 124.173 64.248 126.027 63.846 128.074 C 64.135 128.324 64.424 128.575 64.716 128.867 Z" fill="white" style="fill-opacity: 0; stroke: rgb(255, 255, 255);" id="object-1"/><path d="M 72.378 157.079 L 68.515 153.215 L 64.719 157.011 C 64.43 157.299 64.143 157.562 63.858 157.81 C 64.293 159.892 65.525 161.799 68.513 161.799 C 71.509 161.799 72.739 159.882 73.171 157.793 C 72.906 157.564 72.64 157.34 72.378 157.079 Z" fill="white" style="stroke: rgb(255, 255, 255); fill-opacity: 0;" id="object-2"/><path d="M 63.105 138.074 L 55.783 138.074 C 53.099 138.074 49.653 138.92 49.653 142.936 C 49.653 145.933 51.571 147.164 53.661 147.596 C 53.908 147.31 63.105 138.074 63.105 138.074 Z" fill="white" style="fill-opacity: 0; stroke: rgb(255, 255, 255);" id="object-3"/><path d="M 83.38 138.269 C 83.148 138.539 73.931 147.798 73.931 147.798 L 81.15 147.798 C 83.834 147.798 87.28 147.164 87.28 142.936 C 87.28 139.836 85.427 138.672 83.38 138.269 Z" fill="white" style="stroke: rgb(255, 255, 255); fill-opacity: 0;" id="object-4"/><path d="M 65.505 135.671 L 66.813 134.363 L 63.017 130.567 C 61.118 128.668 58.234 126.68 55.245 129.67 C 53.053 131.862 53.54 133.995 54.702 135.727 C 55.056 135.701 65.505 135.671 65.505 135.671 Z" fill="white" style="stroke: rgb(255, 255, 255); fill-opacity: 0;" id="object-5"/><path d="M 71.523 150.202 L 70.211 151.513 L 74.078 155.379 C 75.976 157.278 79.01 159.116 81.85 156.276 C 83.969 154.157 83.483 151.931 82.311 150.148 C 81.934 150.175 71.523 150.202 71.523 150.202 Z" fill="white" style="fill-opacity: 0; stroke: rgb(255, 255, 255);" id="object-6"/></g></svg>