<svg width="133" height="119" viewBox="0 0 133 119" fill="none" xmlns="http://www.w3.org/2000/svg">
<path fill-rule="evenodd" clip-rule="evenodd" d="M1 115.866L14.2312 115.87C14.7375 115.87 15.2322 115.716 15.6494 115.429L29.0587 106.2L29.059 106.17L29.0592 106.151L29.1764 79.8194C29.186 77.6716 30.89 75.9148 33.0364 75.8396L40.4256 75.5809C42.1603 75.5202 43.6578 74.3476 44.1329 72.6782L56.7061 28.4957L55.5296 13.6712L51.0533 22.0604L34.0644 54.5377L8.87122 101.114L1 115.866ZM58.7978 11.3524L64.7789 1L125.563 98.5919L114.14 93.1525L81.2075 59.187C79.9992 57.9408 79.7326 56.0576 80.5473 54.525L84.0178 47.9964C85.0259 46.1 84.3565 43.7458 82.5013 42.6637L59.7886 29.4154L58.4704 12.801C58.4304 12.2962 58.5445 11.7909 58.7978 11.3524ZM18.5455 117.078L132.003 113.282L125.789 102.511C125.536 102.072 125.155 101.721 124.698 101.503L110.562 94.7719L87.8049 107.776C85.9401 108.842 83.5667 108.244 82.4283 106.423L78.5097 100.153C77.5897 98.6813 75.8255 97.9707 74.1422 98.394L29.3144 109.666L18.5455 117.078Z" fill="white"/>
<path d="M14.2312 115.87L14.2309 116.87L14.2309 116.87L14.2312 115.87ZM1 115.866L0.11774 115.395C-0.0476129 115.705 -0.0382596 116.079 0.14238 116.38C0.323019 116.681 0.648456 116.866 0.999701 116.866L1 115.866ZM15.6494 115.429L15.0824 114.605L15.0824 114.605L15.6494 115.429ZM29.0587 106.2L29.6256 107.024C29.8929 106.84 30.0544 106.538 30.0586 106.213L29.0587 106.2ZM29.059 106.17L30.059 106.183L30.059 106.177L29.059 106.17ZM29.0592 106.151L30.0592 106.158L30.0592 106.156L29.0592 106.151ZM29.1764 79.8194L30.1764 79.8238L29.1764 79.8194ZM33.0364 75.8396L33.0014 74.8402L33.0014 74.8402L33.0364 75.8396ZM40.4256 75.5809L40.3906 74.5815L40.3906 74.5815L40.4256 75.5809ZM44.1329 72.6782L45.0947 72.9519L44.1329 72.6782ZM56.7061 28.4957L57.6679 28.7694C57.7005 28.6548 57.7124 28.5353 57.7029 28.4166L56.7061 28.4957ZM55.5296 13.6712L56.5264 13.5921C56.4913 13.1494 56.1684 12.7829 55.7336 12.6923C55.2988 12.6016 54.8564 12.8086 54.6473 13.2005L55.5296 13.6712ZM51.0533 22.0604L50.171 21.5896L50.1672 21.5968L51.0533 22.0604ZM34.0644 54.5377L34.9441 55.0135L34.9505 55.0012L34.0644 54.5377ZM8.87122 101.114L7.99163 100.638L7.98896 100.643L8.87122 101.114ZM64.7789 1L65.6277 0.471321C65.442 0.173177 65.1135 -0.00568356 64.7623 0.000137328C64.4111 0.00595822 64.0887 0.195607 63.913 0.499741L64.7789 1ZM58.7978 11.3524L57.9319 10.8521L57.9319 10.8522L58.7978 11.3524ZM125.563 98.5919L125.133 99.4948C125.534 99.6857 126.013 99.5893 126.309 99.2581C126.605 98.9269 126.647 98.4402 126.412 98.0632L125.563 98.5919ZM114.14 93.1525L113.422 93.8486C113.505 93.9341 113.602 94.0041 113.71 94.0553L114.14 93.1525ZM81.2075 59.187L80.4895 59.8831L80.4895 59.8831L81.2075 59.187ZM80.5473 54.525L81.4303 54.9944L81.4303 54.9944L80.5473 54.525ZM84.0178 47.9964L83.1348 47.527L83.1348 47.527L84.0178 47.9964ZM82.5013 42.6637L81.9974 43.5275L81.9974 43.5275L82.5013 42.6637ZM59.7886 29.4154L58.7918 29.4944C58.8177 29.821 59.0018 30.1141 59.2848 30.2791L59.7886 29.4154ZM58.4704 12.801L59.4673 12.7219L59.4673 12.7219L58.4704 12.801ZM132.003 113.282L132.036 114.282C132.387 114.27 132.707 114.075 132.877 113.768C133.048 113.461 133.045 113.087 132.869 112.782L132.003 113.282ZM18.5455 117.078L17.9786 116.254C17.6127 116.506 17.4568 116.969 17.5957 117.391C17.7346 117.813 18.1351 118.092 18.5789 118.078L18.5455 117.078ZM125.789 102.511L126.655 102.011L126.655 102.011L125.789 102.511ZM124.698 101.503L124.268 102.406L124.268 102.406L124.698 101.503ZM110.562 94.7719L110.992 93.8691C110.696 93.7282 110.35 93.7412 110.066 93.9037L110.562 94.7719ZM87.8049 107.776L87.3088 106.908L87.3088 106.908L87.8049 107.776ZM82.4283 106.423L81.5803 106.953L81.5803 106.953L82.4283 106.423ZM78.5097 100.153L77.6617 100.683L77.6617 100.683L78.5097 100.153ZM74.1422 98.394L74.3861 99.3638L74.3861 99.3638L74.1422 98.394ZM29.3144 109.666L29.0705 108.697C28.955 108.726 28.8456 108.775 28.7475 108.843L29.3144 109.666ZM14.2312 115.87L14.2315 114.87L1.0003 114.866L1 115.866L0.999701 116.866L14.2309 116.87L14.2312 115.87ZM15.6494 115.429L15.0824 114.605C14.832 114.778 14.5351 114.87 14.2314 114.87L14.2312 115.87L14.2309 116.87C14.94 116.87 15.6324 116.655 16.2163 116.253L15.6494 115.429ZM29.0587 106.2L28.4917 105.377L15.0824 114.605L15.6494 115.429L16.2163 116.253L29.6256 107.024L29.0587 106.2ZM29.059 106.17L28.0591 106.157L28.0587 106.187L29.0587 106.2L30.0586 106.213L30.059 106.183L29.059 106.17ZM29.0592 106.151L28.0592 106.144L28.0591 106.164L29.059 106.17L30.059 106.177L30.0592 106.158L29.0592 106.151ZM29.1764 79.8194L28.1764 79.8149L28.0592 106.147L29.0592 106.151L30.0592 106.156L30.1764 79.8238L29.1764 79.8194ZM33.0364 75.8396L33.0014 74.8402C30.3184 74.9342 28.1884 77.1302 28.1764 79.8149L29.1764 79.8194L30.1764 79.8238C30.1836 78.213 31.4616 76.8954 33.0714 76.839L33.0364 75.8396ZM40.4256 75.5809L40.3906 74.5815L33.0014 74.8402L33.0364 75.8396L33.0714 76.839L40.4606 76.5803L40.4256 75.5809ZM44.1329 72.6782L43.1711 72.4045C42.8148 73.6566 41.6916 74.536 40.3906 74.5815L40.4256 75.5809L40.4606 76.5803C42.6289 76.5044 44.5009 75.0387 45.0947 72.9519L44.1329 72.6782ZM56.7061 28.4957L55.7443 28.222L43.1711 72.4045L44.1329 72.6782L45.0947 72.9519L57.6679 28.7694L56.7061 28.4957ZM55.5296 13.6712L54.5327 13.7503L55.7092 28.5748L56.7061 28.4957L57.7029 28.4166L56.5264 13.5921L55.5296 13.6712ZM55.5296 13.6712L54.6473 13.2005L50.171 21.5896L51.0533 22.0604L51.9355 22.5311L56.4118 14.142L55.5296 13.6712ZM34.0644 54.5377L34.9505 55.0012L51.9393 22.5239L51.0533 22.0604L50.1672 21.5968L33.1783 54.0741L34.0644 54.5377ZM8.87122 101.114L9.75079 101.59L34.944 55.0134L34.0644 54.5377L33.1848 54.0619L7.99164 100.638L8.87122 101.114ZM8.87122 101.114L7.98896 100.643L0.11774 115.395L1 115.866L1.88226 116.337L9.75348 101.585L8.87122 101.114ZM64.7789 1L63.913 0.499741L57.9319 10.8521L58.7978 11.3524L59.6637 11.8527L65.6448 1.50026L64.7789 1ZM125.563 98.5919L126.412 98.0632L65.6277 0.471321L64.7789 1L63.9301 1.52868L124.714 99.1206L125.563 98.5919ZM114.14 93.1525L113.71 94.0553L125.133 99.4948L125.563 98.5919L125.993 97.689L114.57 92.2496L114.14 93.1525ZM81.2075 59.187L80.4895 59.8831L113.422 93.8486L114.14 93.1525L114.858 92.4564L81.9254 58.4909L81.2075 59.187ZM80.5473 54.525L79.6643 54.0556C78.6459 55.9714 78.9792 58.3254 80.4895 59.8831L81.2075 59.187L81.9254 58.4909C81.0192 57.5563 80.8192 56.1439 81.4303 54.9944L80.5473 54.525ZM84.0178 47.9964L83.1348 47.527L79.6643 54.0556L80.5473 54.525L81.4303 54.9944L84.9008 48.4658L84.0178 47.9964ZM82.5013 42.6637L81.9974 43.5275C83.3888 44.3391 83.8909 46.1047 83.1348 47.527L84.0178 47.9964L84.9008 48.4658C86.161 46.0952 85.3241 43.1526 83.0051 41.7999L82.5013 42.6637ZM59.7886 29.4154L59.2848 30.2791L81.9974 43.5275L82.5013 42.6637L83.0051 41.7999L60.2925 28.5516L59.7886 29.4154ZM58.4704 12.801L57.4736 12.8801L58.7918 29.4944L59.7886 29.4154L60.7855 29.3363L59.4673 12.7219L58.4704 12.801ZM58.7978 11.3524L57.9319 10.8522C57.5772 11.4662 57.4175 12.1735 57.4736 12.8801L58.4704 12.801L59.4673 12.7219C59.4432 12.4189 59.5118 12.1156 59.6637 11.8526L58.7978 11.3524ZM132.003 113.282L131.97 112.283L18.5121 116.079L18.5455 117.078L18.5789 118.078L132.036 114.282L132.003 113.282ZM125.789 102.511L124.922 103.011L131.137 113.782L132.003 113.282L132.869 112.782L126.655 102.011L125.789 102.511ZM124.698 101.503L124.268 102.406C124.542 102.537 124.771 102.748 124.922 103.011L125.789 102.511L126.655 102.011C126.3 101.397 125.768 100.905 125.128 100.6L124.698 101.503ZM110.562 94.7719L110.132 95.6748L124.268 102.406L124.698 101.503L125.128 100.6L110.992 93.8691L110.562 94.7719ZM87.8049 107.776L88.301 108.644L111.058 95.6402L110.562 94.7719L110.066 93.9037L87.3088 106.908L87.8049 107.776ZM82.4283 106.423L81.5803 106.953C83.0032 109.23 85.9701 109.976 88.301 108.644L87.8049 107.776L87.3088 106.908C85.9102 107.707 84.1301 107.259 83.2763 105.893L82.4283 106.423ZM78.5097 100.153L77.6617 100.683L81.5803 106.953L82.4283 106.423L83.2763 105.893L79.3577 99.6232L78.5097 100.153ZM74.1422 98.394L74.3861 99.3638C75.6486 99.0463 76.9717 99.5793 77.6617 100.683L78.5097 100.153L79.3577 99.6232C78.2078 97.7834 76.0025 96.8951 73.8983 97.4242L74.1422 98.394ZM29.3144 109.666L29.5583 110.636L74.3861 99.3638L74.1422 98.394L73.8983 97.4242L29.0705 108.697L29.3144 109.666ZM18.5455 117.078L19.1125 117.902L29.8813 110.49L29.3144 109.666L28.7475 108.843L17.9786 116.254L18.5455 117.078Z" fill="white"/>
</svg>
